<svg width="249" height="40" viewBox="0 0 249 40" fill="none" xmlns="http://www.w3.org/2000/svg">
<path d="M20 40C31.0457 40 40 31.0457 40 20C40 8.9543 31.0457 0 20 0C8.9543 0 0 8.9543 0 20C0 31.0457 8.9543 40 20 40Z" fill="url(#paint0_radial_2_1193)"/>
<path d="M18.1212 27.9096L13.8348 25.3216L11.6439 26.4303L17.5279 30.0706C18.9452 30.9474 20.7298 30.9669 22.1655 30.1199C24.2405 28.8954 27.1222 27.1625 28.3295 26.2868C29.546 25.4054 29.5724 23.3133 29.5724 23.3133L21.5435 27.944C20.4819 28.5569 19.1713 28.5431 18.1212 27.9096Z" fill="white"/>
<path d="M20.1962 22.2976L20.1894 23.1032C20.1871 23.3695 20.3294 23.6174 20.5612 23.7494L22.5122 24.8626L22.5019 24.8396C22.3446 24.493 22.2666 24.1155 22.2723 23.7344L22.3114 21.2096L20.1962 22.2964V22.2976Z" fill="white"/>
<path d="M29.9443 18.5104L30.2645 12.9695L20.8171 9.21445C20.1297 8.94131 19.3722 8.94131 18.6859 9.21445L13.7063 11.2251C13.5353 11.2917 13.471 11.442 13.4664 11.5614C13.4619 11.6807 13.5169 11.8345 13.6811 11.9126L15.9247 12.8995L18.9706 11.7691C19.5352 11.5315 20.1882 11.535 20.7551 11.7806L27.7351 14.8046L27.6685 17.194C27.6502 17.8711 27.2611 18.484 26.6575 18.7892L26.1605 19.0406L26.0469 21.3577L29.2225 19.6419C29.6425 19.4147 29.9156 18.9866 29.9432 18.5092L29.9443 18.5104Z" fill="white"/>
<path d="M7.63983 27.1453L17.5991 33.4114C18.951 34.2618 20.6989 34.2607 22.0497 33.4091L30.1119 28.3606C31.3479 27.5814 32.1489 26.2455 32.2534 24.7869L33.1692 12.0216L31.0977 13.051L30.7775 18.4897C30.7293 19.3103 30.2588 20.0482 29.5334 20.4373L26.2959 22.176C26.0549 22.3068 25.7669 22.2896 25.5396 22.1255C25.3445 21.9843 25.2447 21.7456 25.2504 21.5057L25.3308 18.1627C25.3422 17.6806 25.1253 17.209 24.7214 16.9461C24.3174 16.6833 23.7987 16.6546 23.3649 16.883L20.1951 18.4668V21.477L23.047 20.0172L22.9919 23.8825C22.9838 24.4414 23.2673 24.9441 23.7493 25.2264C24.2302 25.5087 24.8074 25.5122 25.2918 25.2333L30.4791 22.1737L30.3919 23.7035C30.3127 25.091 29.561 26.3511 28.3766 27.0798L22.3469 30.7902C20.7918 31.7324 18.8581 31.7324 17.303 30.7925L10.8211 26.8756C10.6593 26.7757 10.5663 26.6059 10.5686 26.4188C10.5709 26.234 10.7281 26.016 10.8934 25.9333L19.2861 21.7444V18.546L8.3158 13.0648L8.49598 15.3624C8.52123 15.6837 8.706 15.9672 8.99061 16.1187L15.313 19.4675C15.4243 19.5272 15.492 19.6385 15.4932 19.7648C15.4943 19.891 15.43 20.0035 15.3199 20.0654L8.66698 23.824C7.92445 24.244 7.48949 25.0543 7.55032 25.9058L7.63983 27.1441V27.1453Z" fill="white"/>
<path d="M21.1969 6.58061C20.2788 6.2191 19.2574 6.2191 18.3393 6.58061L9.05599 10.2267C8.04032 10.6261 7.9795 12.0411 8.8081 12.4829L19.6189 17.8447L23.3442 15.9936L21.0018 14.9148C20.7551 14.8012 20.4716 14.8 20.2237 14.9114L19.8232 15.0915L19.767 15.1179L19.7107 15.0915L12.6516 11.9068C12.1248 11.6589 12.1454 10.9026 12.6848 10.6834L18.4804 8.33651C19.3056 8.00254 20.2283 8.00025 21.0546 8.33077L30.8589 12.2592L32.9293 11.1999L21.1958 6.57946L21.1969 6.58061Z" fill="white"/>
<g clip-path="url(#clip0_2_1193)">
<path d="M115.483 18.2187H103.026C101.844 18.2187 100.883 17.2576 100.883 16.0757V12.1152H97.2101V16.0757C97.2101 19.2821 99.8192 21.8912 103.026 21.8912H115.483V22.1845C115.483 23.3664 114.522 24.3275 113.34 24.3275H82.1467L93.9931 16.2389C94.8389 15.6608 95.2048 14.6155 94.9019 13.6363C94.6 12.6571 93.7083 12 92.6832 12H54.8155C51.6091 12 49 14.6091 49 17.8155V22.1845C49 25.3909 51.6091 28 54.8155 28H72.9541V24.3275H54.8155C53.6336 24.3275 52.6725 23.3664 52.6725 22.1845V17.8155C52.6725 16.6336 53.6336 15.6725 54.8155 15.6725H88.3088L76.4624 23.7611C75.6165 24.3392 75.2517 25.3845 75.5536 26.3637C75.8555 27.3429 76.7472 28 77.7712 28H113.34C116.547 28 119.156 25.3909 119.156 22.1845V12.1152H115.483V18.2187Z" fill="white"/>
<path d="M136.901 12H121.697V15.6725H136.901C138.083 15.6725 139.044 16.6336 139.044 17.8155V18.1632H121.697V21.8357H139.044V22.1835C139.044 23.3653 138.083 24.3264 136.901 24.3264H121.697V27.9989H136.901C140.107 27.9989 142.716 25.3899 142.716 22.1835V17.8155C142.716 14.6091 140.107 12 136.901 12Z" fill="white"/>
<path d="M160.238 12H145.002V28H160.238C163.445 28 166.054 25.3909 166.054 22.1845V17.8155C166.054 14.6091 163.445 12 160.238 12ZM162.381 22.1845C162.381 23.3664 161.42 24.3275 160.238 24.3275H148.675V15.6725H160.238C161.42 15.6725 162.381 16.6336 162.381 17.8155V22.1845Z" fill="white"/>
</g>
<path d="M171.088 31.072L181.72 8.848H185.416L174.784 31.072H171.088ZM186.332 28V11.2H193.532C197.78 11.2 200.516 13.384 200.516 17.104V17.152C200.516 21.112 197.468 23.2 193.292 23.2H190.988V28H186.332ZM190.988 19.552H193.196C194.852 19.552 195.86 18.688 195.86 17.368V17.32C195.86 15.88 194.852 15.112 193.172 15.112H190.988V19.552ZM202.312 28V10.48H206.872V28H202.312ZM213.132 28.288C210.66 28.288 208.764 26.872 208.764 24.28V24.232C208.764 21.544 210.804 20.152 213.852 20.152C215.052 20.152 216.228 20.392 216.972 20.656V20.44C216.972 19.096 216.132 18.328 214.38 18.328C213.012 18.328 211.956 18.592 210.804 19.048L209.868 15.832C211.332 15.232 212.892 14.824 215.124 14.824C217.452 14.824 219.036 15.376 220.068 16.408C221.052 17.368 221.46 18.712 221.46 20.536V28H216.948V26.656C216.06 27.64 214.836 28.288 213.132 28.288ZM214.764 25.432C216.084 25.432 217.02 24.592 217.02 23.296V22.696C216.564 22.504 215.916 22.36 215.243 22.36C213.924 22.36 213.156 23.008 213.156 23.968V24.016C213.156 24.904 213.828 25.432 214.764 25.432ZM223.779 28V15.016H228.339V16.84C229.179 15.76 230.379 14.728 232.227 14.728C234.987 14.728 236.643 16.552 236.643 19.504V28H232.083V20.968C232.083 19.552 231.339 18.784 230.259 18.784C229.155 18.784 228.339 19.552 228.339 20.968V28H223.779ZM244.15 28.264C241.414 28.264 239.782 27.064 239.782 23.968V18.688H238.246V15.016H239.782V11.728H244.342V15.016H247.366V18.688H244.342V23.08C244.342 23.992 244.75 24.376 245.59 24.376C246.19 24.376 246.766 24.208 247.318 23.944V27.52C246.502 27.976 245.422 28.264 244.15 28.264Z" fill="white"/>
<defs>
<radialGradient id="paint0_radial_2_1193" cx="0" cy="0" r="1" gradientUnits="userSpaceOnUse" gradientTransform="translate(10.571 8.00023) scale(40.0195 40.0195)">
<stop stop-color="#F7703D"/>
<stop offset="0.7" stop-color="#470903"/>
<stop offset="1" stop-color="#2BCCD5"/>
</radialGradient>
<clipPath id="clip0_2_1193">
<rect width="117.054" height="16" fill="white" transform="translate(49 12)"/>
</clipPath>
</defs>
</svg>
