<svg xmlns="http://www.w3.org/2000/svg" xmlns:xlink="http://www.w3.org/1999/xlink" viewBox="0 0 32 32">
    <path d="M15 2h2v5h-2z" fill="#828282"></path>
    <path d="M21.687 8.9l3.506-3.507l1.414 1.415l-3.506 3.506z" fill="#828282"></path>
    <path d="M25 15h5v2h-5z" fill="#828282"></path>
    <path d="M21.687 23.1l1.414-1.414l3.506 3.506l-1.414 1.415z" fill="#828282"></path>
    <path d="M15 25h2v5h-2z" fill="#828282"></path>
    <path d="M5.394 25.192L8.9 21.686l1.414 1.415l-3.506 3.506z" fill="#828282"></path>
    <path d="M2 15h5v2H2z" fill="#828282"></path>
    <path d="M5.394 6.808l1.414-1.415L10.314 8.9L8.9 10.314z" fill="#828282"></path>
    <path d="M16 12a4 4 0 1 1-4 4a4.005 4.005 0 0 1 4-4m0-2a6 6 0 1 0 6 6a6 6 0 0 0-6-6z" fill="#828282"></path>
</svg>
